<?xml version="1.0" encoding="UTF-8" standalone="no"?>
<svg
   xmlns:svg="http://www.w3.org/2000/svg"
   xmlns:xlink="http://www.w3.org/1999/xlink"
   xmlns="http://www.w3.org/2000/svg"
   version="1.2"
   viewBox="0 0 360 540"
   id="svg2">
  <rect
     width="360"
     height="540"
     x="0"
     y="0"
     id="rect3002"
     style="fill:{background_color};fill-opacity:1;fill-rule:nonzero;stroke:#47172c;stroke-width:0.50000000000000000;stroke-linecap:round;stroke-linejoin:round;stroke-miterlimit:4;stroke-opacity:1;stroke-dasharray:none" />
  <g
     id="g6338"
     style="opacity:0.15"
     transform="matrix({matrix})">
    <image
       width="649.08002"
       height="649.08002"
       xlink:href="./stainedpaper_tiled.jpg"
       id="image6329"
       x="0"
       y="-649.08002" />
    <use
       height="540"
       width="360"
       transform="translate(-649.08,2.9101563e-6)"
       id="use6332"
       xlink:href="#image6329"
       y="0"
       x="0" />
    <use
       height="540"
       width="360"
       transform="translate(0,649.08)"
       id="use6334"
       xlink:href="#image6329"
       y="0"
       x="0" />
    <use
       height="540"
       width="360"
       transform="translate(-649.08,649.08)"
       id="use6336"
       xlink:href="#image6329"
       y="0"
       x="0" />
  </g>
  <rect
     style="fill:{bind_color};fill-opacity:1;fill-rule:nonzero;stroke:none"
     id="rect3768"
     width="33.75"
     height="540"
     x="0"
     y="0" />
  <path
     style="color:#000000;fill:{bind_color};fill-opacity:1;stroke:none;stroke-width:4.375;marker:none;visibility:visible;display:inline;overflow:visible;enable-background:accumulate"
     d="M 303.75,0 360,56.25 360,0"
     id="path3770" />
  <path
     style="color:#000000;fill:{bind_color};stroke:none;stroke-width:4.37500000000000000;stroke-linecap:butt;stroke-linejoin:miter;stroke-miterlimit:4;stroke-opacity:1;stroke-dasharray:none;stroke-dashoffset:0;marker:none;visibility:visible;display:inline;overflow:visible;enable-background:accumulate;fill-opacity:1"
     d="M 303.75,540 360,483.75 360,540"
     id="path3772" />
  <path
     id="path3816"
     d="m 89.96361,258.21875 a 2.50025,2.50025 0 0 0 -1.5,4.3125 L 97.93236,272 l -9.46875,9.46875 a 2.5190679,2.5190679 0 1 0 3.5625,3.5625 L 102.55735,274.5 l 82.375,0 c 1.01017,2.64022 3.56709,4.53125 6.5625,4.53125 2.99541,0 5.55233,-1.89103 6.5625,-4.53125 l 82.375,0 10.53125,10.53125 a 2.5190679,2.5190679 0 1 0 3.5625,-3.5625 L 285.05735,272 l 9.46875,-9.46875 a 2.5190679,2.5190679 0 1 0 -3.5625,-3.5625 L 280.43235,269.5 l -82.375,0 c -1.01017,-2.64022 -3.56709,-4.53125 -6.5625,-4.53125 -2.99541,0 -5.55233,1.89103 -6.5625,4.53125 l -82.375,0 -10.53124,-10.53125 a 2.50025,2.50025 0 0 0 -1.8125,-0.75 2.50025,2.50025 0 0 0 -0.25,0 z"
     style="font-size:medium;font-style:normal;font-variant:normal;font-weight:normal;font-stretch:normal;text-indent:0;text-align:start;text-decoration:none;line-height:normal;letter-spacing:normal;word-spacing:normal;text-transform:none;direction:ltr;block-progression:tb;writing-mode:lr-tb;text-anchor:start;baseline-shift:baseline;color:#000000;fill:{highlight_color};fill-opacity:1;stroke:none;stroke-width:5;marker:none;visibility:visible;display:inline;overflow:visible;enable-background:accumulate;font-family:Sans;-inkscape-font-specification:Sans" />
  <path
     style="font-size:medium;font-style:normal;font-variant:normal;font-weight:normal;font-stretch:normal;text-indent:0;text-align:start;text-decoration:none;line-height:normal;letter-spacing:normal;word-spacing:normal;text-transform:none;direction:ltr;block-progression:tb;writing-mode:lr-tb;text-anchor:start;baseline-shift:baseline;color:#000000;fill:{text_color};fill-opacity:1;stroke:none;stroke-width:5;marker:none;visibility:visible;display:inline;overflow:visible;enable-background:accumulate;font-family:Sans;-inkscape-font-specification:Sans"
     d="M 89.71875 256.21875 A 2.50025 2.50025 0 0 0 88.21875 260.53125 L 97.6875 270 L 88.21875 279.46875 A 2.5190679 2.5190679 0 1 0 91.78125 283.03125 L 102.3125 272.5 L 184.6875 272.5 C 185.69767 275.14022 188.25459 277.03125 191.25 277.03125 C 194.24541 277.03125 196.80233 275.14022 197.8125 272.5 L 280.1875 272.5 L 290.71875 283.03125 A 2.5190679 2.5190679 0 1 0 294.28125 279.46875 L 284.8125 270 L 294.28125 260.53125 A 2.5190679 2.5190679 0 1 0 290.71875 256.96875 L 280.1875 267.5 L 197.8125 267.5 C 196.80233 264.85978 194.24541 262.96875 191.25 262.96875 C 188.25459 262.96875 185.69767 264.85978 184.6875 267.5 L 102.3125 267.5 L 91.78125 256.96875 A 2.50025 2.50025 0 0 0 89.96875 256.21875 A 2.50025 2.50025 0 0 0 89.71875 256.21875 z "
     id="path3803" />
  <text x="191" y="144" alignment-baseline="middle" text-anchor="middle" font-family="URW Bookman L" font-size="35" style="fill:{text_color};text-shadow: 0px 1px 0px {highlight_color}, 0px 2px 0px {highlight_color};">
    {title}
  </text>
</svg>
